# xmcd
#
# Track frame offsets: 
#        150
#        8262
#        16826
#        23922
#        31047
#        37140
#        47989
#        58434
#        76504
#        82167
#        89788
#        99479
#        110248
#        126990
#        133830
#        149209
#        169685
#        175595
#        180509
#        190653
#        195443
#        199680
#        205554
#        214510
#
# Disc length: 3117 seconds
#
# Revision: 5
# Processed by: cddbd v1.5.2PL0 Copyright (c) Steve Scherf et al.
# Submitted via: ExactAudioCopy v1.0b6
#
DISCID=4b0c2b18
DTITLE=Andras Schiff - BACH: Well-Tempered Clavier (2012)
DYEAR=2012
DGENRE=Classical Piano
TTITLE0=BACH: Well-Tempered Clavier, Book I - Prelude 1 In C Major, BW
TTITLE0=V 846
TTITLE1=BACH: Well-Tempered Clavier, Book I - Fugue 1 In C Major, BWV 
TTITLE1=846
TTITLE2=BACH: Well-Tempered Clavier, Book I - Prelude 2 In C Minor, BW
TTITLE2=V 847
TTITLE3=BACH: Well-Tempered Clavier, Book I - Fugue 2 In C Minor, BWV 
TTITLE3=847
TTITLE4=BACH: Well-Tempered Clavier, Book I - Prelude 3 In C-Sharp Maj
TTITLE4=or, BWV 848
TTITLE5=BACH: Well-Tempered Clavier, Book I - Fugue 3 In C-Sharp Major
TTITLE5=, BWV 848
TTITLE6=BACH: Well-Tempered Clavier, Book I - Prelude 4 In C-Sharp Min
TTITLE6=or, BWV 849
TTITLE7=BACH: Well-Tempered Clavier, Book I - Fugue 4 In C-Sharp Minor
TTITLE7=, BWV 849
TTITLE8=BACH: Well-Tempered Clavier, Book I - Prelude 5 In D Major, BW
TTITLE8=V 850
TTITLE9=BACH: Well-Tempered Clavier, Book I - Fugue 5 In D Major, BWV 
TTITLE9=850
TTITLE10=BACH: Well-Tempered Clavier, Book I - Prelude 6 In D Minor, B
TTITLE10=WV 851
TTITLE11=BACH: Well-Tempered Clavier, Book I - Fugue 6 In D Minor, BWV
TTITLE11=851
TTITLE12=BACH: Well-Tempered Clavier, Book I - Prelude 7 In E-Flat Maj
TTITLE12=or, BWV 852
TTITLE13=BACH: Well-Tempered Clavier, Book I - Fugue 7 In E-Flat Major
TTITLE13=, BWV 852
TTITLE14=BACH: Well-Tempered Clavier, Book I - Prelude 8 In E-Flat Min
TTITLE14=or, BWV 853
TTITLE15=BACH: Well-Tempered Clavier, Book I - Fugue 8 In D-Sharp Mino
TTITLE15=r, BWV 853
TTITLE16=BACH: Well-Tempered Clavier, Book I - Prelude 9 In E Major, B
TTITLE16=WV 854
TTITLE17=BACH: Well-Tempered Clavier, Book I - Fugue 9 In E Major, BWV
TTITLE17=854
TTITLE18=BACH: Well-Tempered Clavier, Book I - Prelude 10 In E Minor, 
TTITLE18=BWV 855
TTITLE19=BACH: Well-Tempered Clavier, Book I - Fugue 10 In E Minor, BW
TTITLE19=V 855
TTITLE20=BACH: Well-Tempered Clavier, Book I - Prelude 11 In F Major, 
TTITLE20=BWV 856
TTITLE21=BACH: Well-Tempered Clavier, Book I - Fugue 11 In F Major, BW
TTITLE21=V 856
TTITLE22=BACH: Well-Tempered Clavier, Book I - Prelude 12 In F Minor, 
TTITLE22=BWV 857
TTITLE23=BACH: Well-Tempered Clavier, Book I - Fugue 12 In F Minor, BW
TTITLE23=V 857
EXTD=Johann Sebastian Bach\n\nDas Wohltemperierte Clavier\nRecorded Au
EXTD=gust 2011\nAndras Schiff, piano\n\n@ by mowa on 20 december 2012
EXTT0=
EXTT1=
EXTT2=
EXTT3=
EXTT4=
EXTT5=
EXTT6=
EXTT7=
EXTT8=
EXTT9=
EXTT10=
EXTT11=
EXTT12=
EXTT13=
EXTT14=
EXTT15=
EXTT16=
EXTT17=
EXTT18=
EXTT19=
EXTT20=
EXTT21=
EXTT22=
EXTT23=
PLAYORDER=
